<svg xmlns="http://www.w3.org/2000/svg" width="271" height="322" viewBox="0 0 271 322" fill="none"><g clip-path="url(#clip0_709_18191)"><path d="M270.999 126.635H267.633V129.994H270.999V126.635Z" fill="#090B17"></path><path d="M245.08 159.196H238.63V165.632H245.08V159.196Z" fill="#090B17"></path><path d="M60.936 43.858H54.4863V50.2944H60.936V43.858Z" fill="#090B17"></path><path d="M227.065 84.0672H223.035V88.089H227.065V84.0672Z" fill="#090B17"></path><path d="M47.1859 31.0741H43.957V34.2963H47.1859V31.0741Z" fill="#090B17"></path><path d="M178.559 28.7079H176.107V31.1549H178.559V28.7079Z" fill="#090B17"></path><path d="M176.108 12.3464H172.062V16.3843H176.108V12.3464Z" fill="#090B17"></path><path d="M35.8165 70.0235H32.5957V73.2376H35.8165V70.0235Z" fill="#090B17"></path><path d="M99.5034 0.943481H96.752V3.68924H99.5034V0.943481Z" fill="#090B17"></path><path d="M134.989 29.6366H131.938V32.6812H134.989V29.6366Z" fill="#090B17"></path><path d="M229.654 222.389C229.84 222.453 230.026 222.55 230.196 222.663C230.471 222.857 230.714 223.116 230.876 223.406C231.111 223.81 231.224 224.319 231.224 224.908C231.224 225.385 231.135 225.878 230.973 226.378C230.925 226.532 230.868 226.693 230.803 226.839C230.496 227.582 230.051 228.276 229.484 228.89C228.869 229.56 228.214 230.028 227.485 230.319C226.951 230.529 226.166 230.731 225.446 230.473C225.244 230.4 225.049 230.303 224.863 230.166C224.596 229.972 224.378 229.722 224.224 229.455C223.989 229.051 223.876 228.543 223.876 227.953C223.876 227.331 224.022 226.685 224.297 226.031C224.604 225.296 225.057 224.585 225.616 223.98C226.231 223.309 226.886 222.841 227.615 222.55C228.076 222.365 228.513 222.276 228.918 222.276C229.185 222.276 229.427 222.316 229.654 222.397V222.389ZM227.267 229.786C227.914 229.528 228.505 229.108 229.063 228.502C229.581 227.945 230.002 227.291 230.277 226.612C230.334 226.475 230.382 226.338 230.431 226.201C230.577 225.756 230.649 225.32 230.657 224.9C230.657 224.408 230.568 224.004 230.39 223.689C230.261 223.471 230.083 223.277 229.872 223.132C229.751 223.043 229.614 222.97 229.476 222.93C228.909 222.736 228.262 222.906 227.825 223.075C227.178 223.334 226.587 223.754 226.029 224.359C225.511 224.917 225.09 225.571 224.815 226.241C224.572 226.83 224.442 227.412 224.434 227.961C224.434 228.454 224.523 228.857 224.701 229.181C224.815 229.382 224.985 229.568 225.187 229.714C225.325 229.81 225.47 229.891 225.616 229.94C225.794 230.004 225.98 230.028 226.174 230.028C226.571 230.028 226.967 229.915 227.267 229.794V229.786Z" fill="#090B17"></path><path d="M199.202 201.061L230.204 222.655C230.269 222.696 230.309 222.776 230.317 222.849C230.325 222.93 230.301 223.011 230.253 223.067C230.164 223.188 229.994 223.204 229.864 223.124C229.743 223.035 229.605 222.962 229.468 222.922C228.901 222.728 228.254 222.898 227.817 223.067C227.169 223.326 226.579 223.746 226.02 224.351C225.502 224.908 225.082 225.563 224.806 226.233C224.564 226.822 224.434 227.404 224.426 227.953C224.426 228.446 224.515 228.849 224.693 229.172C224.806 229.374 224.976 229.56 225.179 229.714C225.235 229.762 225.276 229.827 225.284 229.907C225.292 229.98 225.268 230.061 225.227 230.125C225.138 230.247 224.96 230.271 224.839 230.182L194.047 208.184C193.181 207.57 192.946 206.366 193.019 205.438C193.084 204.549 193.432 203.693 194.087 202.805C194.735 201.917 195.447 201.319 196.264 200.98C196.709 200.794 197.252 200.665 197.794 200.665C198.287 200.665 198.789 200.778 199.202 201.069V201.061ZM223.868 227.953C223.868 227.331 224.013 226.685 224.289 226.031C224.596 225.296 225.049 224.585 225.608 223.98C226.223 223.309 226.878 222.841 227.606 222.55C227.979 222.405 228.343 222.316 228.683 222.284L198.878 201.521C198.198 201.045 197.203 201.198 196.483 201.497C195.763 201.796 195.123 202.337 194.541 203.136C193.958 203.936 193.642 204.703 193.586 205.478C193.529 206.213 193.707 207.239 194.379 207.723L223.965 228.857C223.892 228.583 223.86 228.276 223.86 227.945L223.868 227.953Z" fill="#090B17"></path><path d="M243.614 31.5829C243.201 31.6152 242.74 31.5586 242.255 31.4133C241.486 31.1791 240.774 30.7591 240.094 30.1292C239.471 29.5558 238.945 28.8694 238.564 28.1507C238.233 27.5046 238.03 26.8505 237.974 26.2205C237.917 25.6149 237.99 25.0899 238.192 24.6539C238.322 24.3712 238.532 24.0966 238.783 23.8705C238.961 23.7171 239.147 23.5959 239.349 23.5071C240.07 23.1841 240.887 23.3214 241.445 23.4909C242.214 23.7251 242.926 24.1451 243.614 24.775C244.245 25.3564 244.755 26.0187 245.135 26.7535C245.216 26.8989 245.281 27.0524 245.346 27.2058C245.556 27.6984 245.686 28.1991 245.726 28.6837C245.783 29.2893 245.71 29.8143 245.5 30.2423C245.354 30.5492 245.135 30.8318 244.868 31.0579C244.707 31.1952 244.529 31.3083 244.342 31.389C244.116 31.4859 243.865 31.5505 243.598 31.5748L243.614 31.5829ZM240.151 23.9028C239.956 23.919 239.77 23.9593 239.592 24.0401C239.438 24.1047 239.301 24.1935 239.171 24.3066C238.977 24.4762 238.823 24.6781 238.726 24.8961C238.564 25.2353 238.508 25.6633 238.556 26.164C238.613 26.7212 238.791 27.3027 239.09 27.8842C239.43 28.5464 239.916 29.1763 240.499 29.7012C241.122 30.2746 241.753 30.6541 242.441 30.856C242.902 30.9933 243.582 31.1145 244.14 30.8641C244.278 30.8076 244.407 30.7187 244.529 30.6218C244.731 30.4522 244.901 30.2423 245.006 30.0081C245.168 29.6689 245.224 29.2409 245.176 28.7483C245.135 28.3202 245.022 27.8842 244.836 27.44C244.779 27.3027 244.715 27.1654 244.642 27.0362C244.294 26.3659 243.808 25.736 243.242 25.2111C242.619 24.6377 241.988 24.2581 241.3 24.0562C240.984 23.9593 240.571 23.8786 240.159 23.9109L240.151 23.9028Z" fill="#090B17"></path><path d="M213.705 56.3189C213.155 56.3674 212.588 56.2785 212.119 56.1251C211.253 55.8424 210.476 55.2933 209.74 54.4453C209.003 53.5974 208.566 52.7414 208.429 51.8449C208.283 50.9082 208.412 49.6564 209.246 48.9538L238.783 23.8624C238.905 23.7655 239.083 23.7736 239.188 23.8867C239.237 23.9432 239.269 24.024 239.269 24.1047C239.269 24.1774 239.237 24.2582 239.172 24.3066C238.978 24.4762 238.824 24.6781 238.727 24.8961C238.565 25.2353 238.508 25.6633 238.557 26.164C238.613 26.7213 238.791 27.3027 239.091 27.8842C239.431 28.5464 239.916 29.1763 240.499 29.7012C241.122 30.2746 241.753 30.6542 242.441 30.856C242.902 30.9933 243.582 31.1145 244.141 30.8641C244.278 30.8076 244.408 30.7188 244.529 30.6219C244.65 30.5249 244.82 30.533 244.926 30.6461C244.982 30.7026 245.015 30.7914 245.006 30.8641C245.006 30.9449 244.966 31.0256 244.909 31.0741L215.121 55.7778C214.725 56.1089 214.231 56.2624 213.721 56.3108L213.705 56.3189ZM237.998 25.2918L209.61 49.4061C208.963 49.9552 208.874 51.0212 208.987 51.7642C209.116 52.5556 209.497 53.3067 210.168 54.0739C210.832 54.8411 211.528 55.3337 212.289 55.584C213.041 55.8263 214.077 55.8909 214.725 55.3498L243.364 31.599C243.016 31.599 242.643 31.5425 242.247 31.4214C241.478 31.1872 240.766 30.7672 240.086 30.1373C239.463 29.5639 238.937 28.8775 238.557 28.1587C238.225 27.5127 238.023 26.8585 237.966 26.2286C237.934 25.8895 237.942 25.5745 237.99 25.2918H237.998Z" fill="#090B17"></path><path d="M68.9309 16.2712C68.9552 16.5377 68.9147 16.8365 68.8176 17.1515C68.6638 17.6522 68.3887 18.1125 67.976 18.5567C67.6037 18.9605 67.1505 19.3077 66.6812 19.55C66.2604 19.768 65.8315 19.8972 65.4188 19.9376C65.0222 19.978 64.6824 19.9295 64.3991 19.7923C64.213 19.7034 64.035 19.5742 63.8893 19.4046C63.7922 19.2916 63.7113 19.1704 63.6546 19.0331C63.4442 18.5647 63.5332 18.0317 63.6465 17.6683C63.8003 17.1676 64.0754 16.7073 64.4881 16.2551C64.8685 15.8432 65.3055 15.5121 65.7829 15.2618C65.88 15.2133 65.9771 15.1648 66.0823 15.1245C66.406 14.9872 66.7297 14.9064 67.0453 14.8741C67.4419 14.8337 67.7818 14.8822 68.065 15.0195C68.2673 15.1164 68.4534 15.2537 68.5991 15.4313C68.6881 15.5363 68.7609 15.6494 68.8176 15.7705C68.8823 15.9159 68.9228 16.0774 68.939 16.2551L68.9309 16.2712ZM63.9136 18.5244C63.9217 18.6455 63.954 18.7747 64.0026 18.8878C64.043 18.9847 64.1078 19.0816 64.1806 19.1623C64.2939 19.2916 64.4234 19.3885 64.5691 19.4531C64.7956 19.5581 65.0708 19.5984 65.3945 19.5661C65.7586 19.5338 66.139 19.4127 66.5193 19.2189C66.9482 18.9928 67.3609 18.6778 67.7089 18.3063C68.0812 17.9025 68.332 17.4907 68.4615 17.0465C68.5505 16.7477 68.6315 16.3035 68.4615 15.9401C68.4211 15.8513 68.3644 15.7625 68.2997 15.6898C68.1864 15.5606 68.0488 15.4475 67.8951 15.3748C67.6766 15.2698 67.3933 15.2295 67.0696 15.2618C66.7945 15.286 66.5032 15.3667 66.2118 15.4879C66.1228 15.5283 66.0338 15.5686 65.9448 15.609C65.5078 15.8351 65.0951 16.1501 64.7552 16.5216C64.3829 16.9254 64.1321 17.3372 64.0026 17.7895C63.9378 17.9994 63.8812 18.2659 63.9055 18.5324L63.9136 18.5244Z" fill="#090B17"></path><path d="M85.0914 35.7338C85.1238 36.0892 85.0671 36.4607 84.9619 36.7675C84.7758 37.3328 84.4197 37.8416 83.8614 38.3181C83.303 38.8026 82.7527 39.0772 82.1619 39.1741C81.5469 39.271 80.7377 39.1822 80.2764 38.6411L63.873 19.4127C63.8083 19.332 63.8164 19.2189 63.8892 19.1543C63.9296 19.122 63.9782 19.0978 64.0268 19.1059C64.0753 19.1059 64.1239 19.1301 64.1562 19.1705C64.2695 19.2997 64.399 19.3966 64.5447 19.4612C64.7713 19.5662 65.0464 19.6066 65.3701 19.5743C65.7343 19.542 66.1146 19.4208 66.495 19.227C66.9239 19.0009 67.3366 18.6859 67.6845 18.3144C68.0568 17.9106 68.3077 17.4988 68.4371 17.0546C68.5262 16.7558 68.6071 16.3116 68.4371 15.9482C68.3967 15.8594 68.34 15.7706 68.2753 15.6979C68.2106 15.6171 68.2186 15.5041 68.2915 15.4395C68.3319 15.4072 68.3805 15.3829 68.4371 15.3829C68.4857 15.3829 68.5423 15.4072 68.5747 15.4475L84.7192 34.8374C84.9377 35.0959 85.0348 35.4189 85.0671 35.75L85.0914 35.7338ZM64.8117 19.9215L80.5677 38.3988C80.9238 38.8188 81.6197 38.8834 82.1053 38.8026C82.6232 38.7219 83.1169 38.4715 83.6186 38.0354C84.1203 37.5993 84.444 37.1471 84.6059 36.6545C84.7677 36.1619 84.8082 35.4916 84.4521 35.0636L68.9308 16.4247C68.9308 16.6508 68.8903 16.8931 68.8175 17.1515C68.6637 17.6522 68.3886 18.1125 67.9759 18.5567C67.6036 18.9605 67.1504 19.3078 66.6811 19.55C66.2603 19.7681 65.8314 19.8973 65.4187 19.9377C65.2002 19.9619 64.9898 19.9538 64.8036 19.9215H64.8117Z" fill="#090B17"></path><path d="M55.0439 200.407C54.7688 200.407 54.5017 200.334 54.2589 200.181L40.6474 191.733L14.0233 196.078C9.14353 196.869 4.53083 193.558 3.72968 188.689L0.120443 166.698C-0.267994 164.34 0.290385 161.974 1.69038 160.028C3.09037 158.09 5.16204 156.806 7.52504 156.418L47.4451 149.909C49.8081 149.521 52.1792 150.079 54.1295 151.476C56.0717 152.873 57.3584 154.94 57.7468 157.298L61.3479 179.289C62.0682 183.69 59.3653 187.986 55.141 189.278L56.5329 198.695C56.6219 199.276 56.363 199.833 55.8774 200.156C55.6266 200.318 55.3433 200.407 55.0601 200.407H55.0439ZM40.874 190.578L54.8416 199.244C55.0358 199.365 55.1977 199.284 55.2624 199.244C55.3272 199.203 55.4647 199.082 55.4324 198.856L53.8948 188.471L54.3803 188.35C58.3294 187.372 60.9028 183.472 60.2474 179.466L56.6462 157.476C56.3063 155.409 55.1815 153.591 53.474 152.372C51.7665 151.145 49.6867 150.66 47.615 150.999L7.69498 157.508C5.62331 157.847 3.80251 158.97 2.58055 160.674C1.3505 162.378 0.864949 164.453 1.20483 166.521L4.80597 188.511C5.50192 192.783 9.55624 195.69 13.8372 194.996L40.874 190.587V190.578Z" fill="#1E243D"></path><path d="M19.1364 170.241L13.3055 171.136C12.961 171.189 12.7246 171.51 12.7776 171.854L13.674 177.673C13.7269 178.017 14.0492 178.253 14.3938 178.2L20.2247 177.305C20.5692 177.252 20.8056 176.931 20.7526 176.587L19.8562 170.768C19.8032 170.424 19.481 170.188 19.1364 170.241Z" fill="#1E243D"></path><path d="M32.9031 168.129L27.1522 169.011C26.7855 169.067 26.534 169.41 26.5903 169.775L27.4745 175.514C27.5308 175.88 27.8738 176.131 28.2404 176.075L33.9913 175.193C34.358 175.137 34.6095 174.794 34.5531 174.428L33.669 168.689C33.6126 168.324 33.2697 168.073 32.9031 168.129Z" fill="#1E243D"></path><path d="M46.7523 166.005L40.9534 166.895C40.6 166.949 40.3575 167.279 40.4118 167.632L41.3033 173.419C41.3577 173.771 41.6882 174.013 42.0416 173.959L47.8405 173.069C48.1939 173.015 48.4363 172.685 48.382 172.333L47.4905 166.546C47.4362 166.193 47.1057 165.951 46.7523 166.005Z" fill="#1E243D"></path><path d="M141.866 314.073C141.866 311.874 130.931 310.094 117.437 310.094C103.948 310.094 93.0088 311.874 93.0088 314.073C93.0088 316.272 103.943 318.051 117.437 318.051C130.926 318.051 141.866 316.272 141.866 314.073Z" fill="#1E243D"></path><path d="M133.89 43.002C157.407 44.9402 156.516 44.8594 159.316 45.3198C184.864 49.3819 204.262 66.454 209.951 91.6342C211.505 98.7086 211.925 105.936 211.513 113.229C210.695 127.071 207.313 136.107 201.179 145.58C198.46 149.764 195.53 153.398 191.945 156.693C181.49 166.27 170.597 171.851 161.388 179.321C159.341 180.984 156.468 183.488 154.768 185.491C151.54 189.311 150.156 193.946 149.937 198.856C149.937 199.01 149.613 210.736 149.581 211.067C149.476 212.036 149.055 212.827 148.375 213.425C147.607 214.103 148.837 213.586 128.322 220.112C129.115 219.845 129.827 219.223 130.24 218.488C130.968 217.204 130.75 216.049 130.912 209.718C131.041 204.59 130.831 200.576 132.692 195.86C138.276 181.574 165.693 171.827 179.564 154.464C182.526 150.741 185.204 146.436 187.405 142.18C189.38 138.32 190.917 134.412 192.123 129.518C194.527 119.802 194.923 108.198 193.636 98.4663C189.574 67.6977 166.761 45.6832 133.882 43.002H133.89Z" fill="#1E243D"></path><path d="M101.301 244.145C121.815 236.925 121.532 236.869 124.186 236.546C127.011 236.198 130.167 236.505 132.902 237.2C145.736 240.479 152.906 253.456 150.616 266.894C149.394 274.074 145.316 278.911 140.177 281.213L121.734 289.854C127.917 286.825 132.408 280.349 132.327 270.004C132.279 263.745 130.62 258.092 126.841 253.061C122.997 247.965 118.012 244.904 111.789 243.701C108.285 243.022 104.724 243.014 101.301 244.137V244.145Z" fill="#1E243D"></path><path d="M105.606 121.458L85.4805 123.299C85.5938 123.299 85.7071 123.275 85.8284 123.259C87.4631 122.976 88.2076 121.846 88.3614 120.198C88.766 115.894 87.4469 107.503 91.3232 98.9428C93.5486 93.9601 97.3521 89.5184 101.997 86.4658C106.723 83.3809 112.04 81.8707 117.697 81.475C121.735 81.1923 126.453 81.4427 130.41 82.4602C125.999 83.6231 122.309 85.5775 119.113 88.2344C105.177 99.9362 109.814 116.225 108.228 119.819C107.751 120.901 106.788 121.402 105.614 121.466L105.606 121.458Z" fill="#1E243D"></path><path d="M84.2582 123.307C78.5935 123.041 71.7311 122.54 66.0987 121.902C65.6617 121.854 57.5531 120.877 57.0675 120.715C55.6595 120.247 54.6803 118.51 54.5103 117.049C54.478 116.766 54.3889 109.417 54.9311 103.78C58.9288 63.8617 91.0073 39.4568 133.727 42.994C150.414 44.383 165.142 50.3671 176.658 62.3192C189.428 75.515 194.591 92.3772 194.348 110.943C194.121 128.129 189.929 140.161 181.449 151.976C169.933 167.991 151.442 175.17 138.316 187.825C132.829 193.106 131.211 198.089 131 205.575C130.693 216.558 131.146 217.6 129.786 219.142C129.406 219.57 128.904 219.934 128.289 220.144C127.553 220.386 126.922 220.281 126.218 220.184C123.523 219.813 98.1448 216.655 97.4974 216.445C96.1136 216.017 94.835 214.499 94.657 212.714C94.6003 212.197 94.6327 211.487 94.657 210.808C95.0616 196.345 94.8593 195.844 95.2234 192.468C95.7899 186.993 97.198 181.437 99.8604 176.615C103.097 170.72 110.065 164.122 115.22 159.81C124.785 151.783 133.218 147.365 142.597 137.48C146.748 133.144 149.467 129.332 151.158 123.437C152.688 118.22 153.036 112.058 152.356 106.97C150.446 92.5226 139.028 80.9258 119.768 81.378C114.176 81.5073 108.722 82.6459 103.769 85.3917C98.8731 88.1213 94.8269 92.3045 92.2373 97.0854C89.0813 102.948 88.5391 108.424 88.4743 114.497C88.4177 119.496 88.5148 120.747 87.8998 121.87C87.5518 122.5 87.0339 122.92 86.3298 123.146C85.6177 123.38 84.9703 123.348 84.2663 123.307H84.2582Z" fill="#17A4F4"></path><path d="M127.334 221.032C126.945 221.032 126.581 220.984 126.217 220.935L126.12 220.919C125.254 220.798 122.049 220.394 118.003 219.877C104.303 218.141 97.6992 217.285 97.2784 217.156C95.5386 216.615 94.1224 214.773 93.912 212.787C93.8553 212.27 93.8796 211.608 93.9039 210.97V210.784C94.0738 204.84 94.1386 201.238 94.1871 198.856C94.2438 195.44 94.268 194.406 94.4865 192.387C95.1258 186.201 96.712 180.774 99.2125 176.252C102.765 169.775 110.469 162.814 114.742 159.236C118.278 156.265 121.693 153.769 124.987 151.354C130.741 147.139 136.179 143.158 142.054 136.963C145.971 132.869 148.738 129.146 150.438 123.227C151.87 118.341 152.307 112.3 151.619 107.059C149.556 91.505 137.037 81.7172 119.784 82.1129C113.747 82.2583 108.624 83.5343 104.133 86.0297C99.4472 88.6462 95.4576 92.6922 92.8923 97.4246C89.9224 102.94 89.2831 108.044 89.2184 114.489C89.2184 115.191 89.2103 115.821 89.2022 116.395C89.1779 119.996 89.1698 121.087 88.5548 122.209C88.1259 123.009 87.4461 123.558 86.5559 123.84C85.7224 124.107 84.9698 124.075 84.2496 124.042H84.2253C78.0022 123.743 71.1965 123.219 66.0173 122.637C65.9364 122.629 57.4555 121.62 56.8324 121.418C55.0763 120.836 53.9595 118.817 53.7734 117.129C53.7329 116.766 53.6439 109.401 54.1942 103.699C56.1769 83.9461 64.8763 67.625 79.3617 56.4885C93.7744 45.4086 112.597 40.4824 133.8 42.2429C151.53 43.7208 166.129 50.2944 177.208 61.7943C189.346 74.344 195.367 90.8832 195.108 110.943C194.89 127.579 190.989 139.976 182.071 152.404C175.104 162.095 165.579 168.612 156.37 174.911C150.049 179.232 144.077 183.318 138.849 188.358C133.84 193.171 131.987 197.685 131.768 205.591C131.688 208.426 131.663 210.566 131.639 212.294C131.574 217.253 131.558 218.286 130.368 219.635C129.875 220.2 129.244 220.612 128.548 220.846C128.119 220.984 127.722 221.032 127.35 221.032H127.334ZM120.819 80.6189C138.356 80.6189 150.972 90.8267 153.092 106.865C153.812 112.3 153.351 118.575 151.87 123.638C150.09 129.849 147.209 133.733 143.138 137.989C137.174 144.28 131.679 148.294 125.869 152.55C122.592 154.948 119.201 157.427 115.697 160.367C111.505 163.88 103.955 170.696 100.515 176.963C98.1201 181.307 96.5825 186.549 95.9675 192.533C95.7571 194.495 95.7409 195.416 95.6761 198.872C95.6357 201.255 95.5709 204.856 95.401 210.816V211.002C95.3767 211.592 95.3524 212.205 95.401 212.617C95.5628 214.208 96.7201 215.403 97.7235 215.718C98.4033 215.872 110.793 217.447 118.197 218.383C122.252 218.9 125.448 219.304 126.322 219.425L126.419 219.441C127.034 219.522 127.52 219.595 128.07 219.417C128.515 219.272 128.912 219.005 129.236 218.634C130.037 217.729 130.069 217.156 130.134 212.254C130.158 210.526 130.182 208.377 130.263 205.535C130.457 198.549 131.793 193.05 137.805 187.267C143.122 182.147 149.426 177.835 155.52 173.668C164.624 167.441 174.043 161.005 180.857 151.524C189.589 139.362 193.401 127.216 193.619 110.911C193.878 91.2547 187.995 75.0709 176.139 62.8119C165.32 51.5785 151.037 45.1502 133.686 43.7127C90.9906 40.1755 59.6485 64.3382 55.6913 103.829C55.1491 109.425 55.2462 116.637 55.2705 116.96C55.4081 118.155 56.2092 119.617 57.3179 119.988C57.9087 120.142 65.5965 121.078 66.1953 121.143C71.3502 121.725 78.1155 122.249 84.3062 122.54H84.3305C84.9779 122.572 85.5282 122.597 86.1109 122.411C86.645 122.241 87.0091 121.943 87.2519 121.482C87.6889 120.683 87.6889 119.681 87.7132 116.362C87.7132 115.797 87.7213 115.159 87.7293 114.456C87.7941 107.972 88.4819 102.472 91.5814 96.7058C94.2761 91.7231 98.4761 87.4672 103.404 84.7133C108.049 82.1372 113.552 80.7562 119.743 80.6108C120.099 80.6028 120.463 80.5947 120.819 80.5947V80.6189Z" fill="#17A4F4"></path><path d="M132.32 270.004C132.393 279.896 128.33 286.123 122.73 289.329C118.652 291.671 114.176 291.994 109.515 291.025C103.244 289.725 98.3314 286.47 94.5604 281.487C92.7315 279.065 91.291 276.359 90.3523 273.5C88.6286 268.259 88.4991 261.904 89.7292 257.09C92.1326 247.65 100.298 241.496 111.781 243.709C118.004 244.912 122.989 247.973 126.833 253.069C130.612 258.092 132.279 263.745 132.32 270.012V270.004Z" fill="#17A4F4"></path><path d="M114.258 292.285C112.704 292.285 111.069 292.107 109.362 291.752C103.09 290.451 97.911 287.148 93.97 281.931C92.0602 279.404 90.6116 276.642 89.6486 273.726C87.933 268.518 87.6903 262.065 89.0093 256.905C91.7122 246.285 100.711 240.818 111.919 242.974C118.401 244.226 123.475 247.383 127.424 252.616C131.171 257.591 133.016 263.276 133.065 269.995C133.137 279.153 129.593 286.244 123.103 289.975C120.408 291.517 117.487 292.285 114.258 292.285ZM107.258 244.008C98.9711 244.008 92.5862 248.902 90.4579 257.276C89.2197 262.105 89.4625 268.388 91.0729 273.266C91.9793 276.028 93.355 278.645 95.1677 281.035C98.9388 286.018 103.681 289.046 109.677 290.29C114.549 291.307 118.701 290.782 122.366 288.675C126.615 286.236 131.665 281.019 131.584 270.004C131.535 263.616 129.787 258.213 126.243 253.505C122.528 248.579 117.754 245.607 111.652 244.428C110.147 244.137 108.682 243.992 107.266 243.992L107.258 244.008Z" fill="#17A4F4"></path></g><defs><clipPath id="clip0_709_18191"><rect width="271" height="320.099" fill="white" transform="translate(0 0.943481)"></rect></clipPath></defs></svg>